<?xml version="1.0" standalone="no"?>
<!DOCTYPE svg PUBLIC "-//W3C//DTD SVG 20010904//EN"
 "http://www.w3.org/TR/2001/REC-SVG-20010904/DTD/svg10.dtd">
<svg version="1.0" xmlns="http://www.w3.org/2000/svg"
 width="1080.000000pt" height="1134.000000pt" viewBox="0 0 1080.000000 1134.000000"
 preserveAspectRatio="xMidYMid meet">

<g transform="translate(0.000000,1134.000000) scale(0.100000,-0.100000)"
fill="#000000" stroke="none">
<path d="M0 5670 l0 -5670 5400 0 5400 0 0 5670 0 5670 -5400 0 -5400 0 0
-5670z m5921 5570 c316 -31 522 -67 824 -145 570 -147 1072 -373 1575 -708
328 -219 563 -416 871 -733 791 -813 1293 -1878 1424 -3024 44 -388 40 -849
-11 -1235 -81 -615 -297 -1292 -585 -1829 -523 -972 -1317 -1744 -2294 -2226
-1222 -604 -2620 -703 -3920 -280 -813 265 -1535 719 -2142 1343 -662 683
-1138 1564 -1336 2479 -90 410 -112 591 -123 1003 -25 866 161 1700 546 2460
215 423 423 733 735 1095 118 137 404 429 527 537 645 568 1440 974 2268 1157
63 14 135 30 160 36 120 26 309 51 650 83 19 2 168 5 331 5 232 2 341 -2 500
-18z"/>
<path d="M5170 11034 c-468 -23 -1040 -139 -1453 -294 -190 -71 -232 -88 -357
-145 -463 -209 -867 -470 -1270 -819 -956 -830 -1571 -2081 -1661 -3381 -13
-183 -6 -730 10 -865 16 -132 41 -303 51 -355 52 -267 104 -475 170 -680 588
-1815 2174 -3152 4055 -3419 351 -50 682 -65 977 -46 647 43 1199 175 1745
416 1103 487 1999 1353 2522 2436 152 317 251 593 331 923 69 285 106 512 130
790 13 156 13 656 0 821 -33 400 -113 794 -241 1177 -348 1048 -1026 1945
-1949 2579 -250 171 -574 349 -850 465 -217 91 -231 96 -419 157 -487 158
-935 232 -1456 240 -143 2 -294 2 -335 0z m-373 -272 c10 -6 163 -322 163
-336 0 -3 17 -42 39 -88 21 -46 41 -94 46 -108 4 -14 36 -81 72 -148 36 -68
61 -128 57 -132 -5 -5 -41 -12 -80 -15 l-71 -7 -6 35 c-3 19 -31 87 -61 149
-31 63 -56 120 -57 128 -1 32 -124 245 -146 255 -27 12 -29 38 -12 166 13 100
25 121 56 101z m1321 -7 c24 -4 46 -14 51 -23 5 -10 14 -78 21 -152 6 -74 16
-160 21 -190 35 -200 39 -215 60 -231 l21 -16 -50 -94 c-28 -52 -57 -103 -65
-113 -14 -19 -14 -19 -25 0 -10 20 -30 166 -57 429 -20 187 -32 243 -55 255
-15 8 -18 21 -17 80 2 69 2 70 27 66 14 -3 44 -8 68 -11z m598 -115 l32 -11
-23 -23 c-14 -14 -28 -46 -35 -82 -6 -32 -27 -120 -45 -194 -31 -122 -85 -432
-89 -504 l-1 -28 -55 6 c-30 4 -73 11 -95 17 -39 11 -39 11 -17 27 16 12 26
38 38 92 8 41 29 129 46 195 16 66 32 134 34 150 2 17 10 68 16 114 11 78 10
85 -7 97 -19 14 -18 17 18 91 l38 76 57 -6 c31 -4 71 -11 88 -17z m-2515 -11
c-31 -19 -33 -23 -28 -59 l5 -39 -33 34 c-18 19 -38 35 -46 35 -22 0 5 20 47
35 22 8 50 14 64 15 24 0 23 -1 -9 -21z m2956 -151 c107 -43 108 -43 68 -48
-44 -6 -39 1 -116 -165 -23 -49 -63 -153 -89 -230 -27 -77 -64 -186 -84 -243
-29 -81 -34 -107 -26 -123 10 -18 9 -19 -17 -13 -32 8 -117 40 -145 55 -18 10
-18 11 1 27 11 9 36 58 57 107 33 81 97 234 137 325 8 19 35 97 58 173 36 115
41 141 31 158 -18 29 2 25 125 -23z m-3285 -76 c302 -257 409 -342 432 -342 9
0 22 -10 30 -22 17 -27 76 -190 76 -211 0 -21 -22 -27 -46 -13 -21 11 -285
231 -492 410 -64 55 -133 109 -155 121 -22 11 -43 27 -47 35 -4 8 -12 25 -19
38 -10 20 -9 23 11 31 13 5 39 16 58 25 19 8 38 15 42 16 4 0 54 -39 110 -88z
m3681 -93 c65 -33 167 -93 167 -100 0 -4 -16 -6 -36 -5 -35 1 -37 -1 -120
-129 -46 -71 -104 -170 -127 -220 -24 -49 -72 -142 -106 -205 -35 -63 -63
-125 -63 -137 -1 -31 -12 -29 -95 17 -81 45 -96 60 -59 60 19 0 30 9 42 33 9
17 63 109 119 202 104 174 235 431 235 463 0 10 -5 23 -12 30 -19 19 7 15 55
-9z m-4241 -16 c-7 -2 -17 -14 -23 -25 -9 -16 -3 -35 28 -101 133 -282 317
-614 345 -623 26 -8 17 -17 -57 -58 -69 -38 -98 -45 -89 -23 5 14 -268 574
-320 657 -16 25 -37 52 -48 61 -20 16 -20 16 8 36 42 29 145 83 158 82 6 0 6
-3 -2 -6z m1388 -123 c0 -5 -7 -10 -16 -10 -8 0 -12 5 -9 10 3 6 10 10 16 10
5 0 9 -4 9 -10z m1200 -186 c0 -9 14 -29 31 -45 l32 -30 -43 7 c-59 10 -131
32 -104 33 12 1 32 12 45 26 28 29 39 31 39 9z m-1201 -90 c42 -14 27 -20 -67
-30 l-70 -6 41 45 c40 43 42 44 52 23 6 -11 26 -26 44 -32z m3603 -52 c40 -33
82 -69 92 -81 l19 -21 -29 6 c-27 5 -38 -4 -140 -113 -101 -109 -361 -444
-386 -499 -6 -13 -14 -24 -18 -24 -3 0 -37 26 -75 57 l-69 57 29 8 c17 5 44
26 60 47 17 21 84 101 150 178 66 77 162 198 213 268 89 124 92 129 77 151
-25 39 -1 28 77 -34z m-5722 -19 c0 -21 124 -214 208 -323 36 -47 101 -132
145 -190 43 -58 92 -117 108 -132 l29 -28 -58 -45 c-64 -50 -78 -54 -87 -24
-4 11 -53 86 -108 165 -56 79 -136 191 -177 250 -41 58 -97 140 -124 182 l-48
76 45 43 c49 46 67 53 67 26z m1362 -143 l29 -17 -38 -15 c-37 -15 -123 -34
-93 -21 26 11 39 37 40 78 0 39 0 39 16 16 9 -12 30 -31 46 -41z m-626 -183
c25 -34 52 -74 60 -89 14 -26 13 -28 -23 -53 -53 -36 -64 -33 -51 11 13 47 5
85 -32 158 -35 68 -18 58 46 -27z m919 -90 c186 -97 150 -390 -135 -1096 -189
-470 -317 -737 -578 -1206 -92 -166 -330 -510 -615 -889 -82 -109 -155 -212
-162 -230 -23 -55 -72 -371 -91 -588 -10 -113 8 -106 103 40 102 157 116 180
148 230 14 24 79 103 144 175 251 281 409 401 504 383 43 -8 86 -53 93 -98 10
-60 -36 -125 -257 -361 -136 -144 -236 -284 -290 -404 -37 -80 -35 -123 10
-218 77 -165 298 -433 406 -494 188 -107 502 -121 781 -36 186 57 348 159 515
325 156 155 248 278 316 420 215 450 262 543 302 605 72 110 136 139 209 95
27 -17 32 -26 32 -57 0 -21 -17 -76 -36 -123 -66 -154 -124 -311 -130 -351 -9
-52 10 -52 79 0 66 49 156 94 232 116 79 24 210 17 282 -15 72 -30 145 -111
188 -205 45 -98 58 -98 129 -1 109 146 282 234 442 224 150 -10 270 -102 385
-297 84 -142 163 -223 300 -306 172 -105 214 -120 339 -119 129 1 201 20 335
85 129 63 225 136 407 309 162 155 236 246 318 394 99 178 197 255 286 226 39
-13 84 -71 84 -110 0 -102 -295 -512 -498 -693 -270 -240 -525 -388 -725 -423
-110 -19 -297 -15 -400 10 -217 52 -491 255 -633 468 -122 182 -200 249 -270
232 -105 -25 -197 -149 -289 -385 -52 -133 -129 -288 -165 -331 -40 -48 -82
-57 -141 -30 -24 11 -57 34 -74 51 l-30 32 -6 182 c-8 198 -29 316 -76 415
-67 142 -181 92 -433 -189 -89 -100 -270 -335 -360 -469 -86 -128 -169 -199
-232 -202 -43 -1 -75 15 -115 61 l-32 36 -48 -28 c-294 -172 -566 -247 -892
-247 -245 0 -394 38 -568 142 -140 84 -288 242 -397 424 -32 55 -64 102 -70
106 -36 24 -123 -144 -167 -322 -37 -155 -97 -356 -115 -392 -8 -15 -32 -37
-54 -48 -73 -37 -159 -19 -195 43 -30 50 -33 227 -6 390 12 70 21 171 21 225
1 103 8 199 35 427 8 77 22 221 30 321 26 336 88 623 235 1100 44 142 87 282
95 309 87 293 104 342 230 695 168 469 358 822 703 1305 100 140 264 308 339
348 88 47 158 51 228 14z m3445 26 c0 -16 -72 -133 -82 -133 -13 0 -171 91
-166 95 2 2 28 -3 58 -11 62 -16 80 -13 134 27 39 29 56 35 56 22z m-5379 -56
c144 -49 250 -140 314 -270 41 -83 50 -139 40 -233 l-7 -67 -23 57 c-31 76
-41 89 -136 190 -153 162 -318 276 -422 291 -43 7 -47 9 -34 22 37 37 173 42
268 10z m-371 -204 c24 -73 74 -147 168 -245 156 -163 275 -241 390 -257 l57
-8 -39 -17 c-60 -27 -124 -30 -207 -12 -189 43 -341 185 -390 364 -35 124 -15
287 21 175z m7136 -48 c7 -17 -31 -81 -127 -216 -37 -53 -96 -147 -130 -210
-34 -63 -91 -162 -126 -221 -34 -59 -63 -114 -63 -122 0 -32 -30 -14 -84 51
-31 37 -56 71 -56 75 0 3 9 9 20 13 21 7 128 163 140 205 4 14 25 44 47 66 41
42 125 181 136 221 3 13 1 26 -4 29 -22 13 -3 28 94 74 107 51 144 60 153 35z
m-806 -124 c0 -6 -84 -118 -105 -140 -9 -8 -145 98 -145 113 0 3 24 -4 54 -15
61 -21 92 -16 156 28 39 26 40 26 40 14z m25 -219 c-3 -7 -5 -26 -5 -40 -1
-26 -2 -26 -40 17 -22 24 -40 47 -40 51 0 4 20 3 45 -3 33 -8 44 -15 40 -25z
m-6606 -82 c90 -45 129 -116 112 -203 -11 -63 3 -75 55 -47 69 36 125 28 252
-35 118 -59 145 -65 174 -38 17 15 18 15 18 -2 0 -25 -45 -82 -80 -100 -49
-26 -88 -18 -205 41 -135 67 -179 76 -229 44 l-36 -22 0 46 c0 24 -5 57 -11
73 -33 89 -202 179 -269 143 -33 -18 -36 -5 -6 40 49 75 146 101 225 60z
m7786 -121 c19 -37 35 -69 35 -72 0 -2 -11 -2 -24 0 -17 4 -63 -16 -154 -66
-71 -39 -133 -71 -137 -71 -5 0 -23 -11 -41 -25 -18 -14 -35 -25 -38 -25 -11
0 -281 -168 -313 -195 -18 -14 -37 -24 -42 -21 -17 11 -73 115 -67 125 3 5 17
12 31 15 13 3 50 21 82 40 32 18 99 54 148 81 50 26 126 71 170 100 44 29 124
80 178 115 82 53 97 66 97 89 l0 26 20 -25 c11 -14 35 -55 55 -91z m-7916
-261 c50 -32 100 -58 111 -58 11 0 23 -7 27 -16 8 -23 289 -202 341 -218 12
-4 22 -10 22 -14 0 -14 -58 -108 -75 -122 -15 -12 -18 -12 -27 3 -17 32 -665
440 -685 433 -28 -11 -9 34 39 96 l28 36 65 -41 c35 -23 105 -68 154 -99z
m8020 71 c39 -71 47 -159 18 -203 -66 -100 -183 -134 -274 -80 -51 30 -73 26
-73 -13 0 -88 -52 -157 -193 -255 -51 -36 -69 -55 -73 -78 -9 -40 -20 -38 -44
10 -44 86 -19 142 100 225 128 90 160 129 160 196 0 35 0 34 47 9 44 -24 128
-27 176 -7 44 19 103 87 118 136 8 29 9 51 1 80 -5 23 -7 41 -3 41 3 0 21 -27
40 -61z m298 -590 c31 -90 30 -109 -5 -109 -16 0 -68 -14 -118 -30 -49 -17
-116 -38 -149 -46 -33 -9 -71 -23 -85 -32 -14 -8 -41 -19 -60 -23 -46 -10
-318 -115 -336 -130 -20 -16 -27 -6 -52 70 -23 68 -22 81 8 81 22 0 245 70
335 105 299 116 401 159 408 171 15 26 31 9 54 -57z m-8637 0 c86 -12 583 -32
638 -26 28 3 42 1 42 -7 0 -6 -16 -45 -35 -85 -29 -59 -38 -72 -53 -66 -30 12
-206 34 -257 32 -28 -1 -117 2 -198 7 -145 8 -148 8 -154 -13 -7 -27 -20 -20
-135 72 -120 96 -118 112 7 102 44 -4 109 -11 145 -16z m243 -371 c9 -32 3
-32 -29 -4 l-29 25 26 1 c19 0 28 -6 32 -22z m8157 -29 c0 -10 -120 -53 -127
-45 -3 3 1 14 10 23 8 10 18 30 22 44 l6 25 44 -20 c24 -12 44 -24 45 -27z
m370 -13 c18 -64 11 -78 -43 -98 -47 -18 -61 -12 -31 13 24 20 44 65 44 99 0
44 15 37 30 -14z m-8285 -103 c-3 -16 -17 -51 -31 -80 -13 -29 -31 -90 -40
-135 -26 -139 -33 -160 -53 -153 -39 12 -441 -146 -441 -174 0 -18 32 -28 195
-60 88 -18 171 -34 184 -37 22 -5 23 -9 18 -48 -3 -23 -11 -54 -16 -69 -9 -23
-14 -25 -33 -17 -13 5 -97 23 -188 40 -91 17 -248 47 -350 67 -102 20 -204 36
-227 36 -48 0 -47 -2 -29 83 16 74 23 89 40 75 13 -11 296 -71 334 -71 30 0
29 27 -3 70 -14 19 -25 39 -25 44 0 6 42 24 93 40 50 17 171 65 268 108 97 43
180 78 186 78 20 0 43 37 54 87 11 47 10 54 -10 87 l-23 36 29 -6 c17 -3 36 1
48 10 27 21 28 20 20 -11z m7542 -166 c18 -10 58 -21 89 -24 56 -6 57 -6 29
-20 -52 -28 -139 -53 -148 -44 -11 11 -67 176 -67 199 0 9 15 -8 33 -38 17
-30 46 -62 64 -73z m-8429 39 c11 -25 7 -36 -15 -36 -8 0 -13 12 -13 30 0 36
13 39 28 6z m9152 -137 c28 -6 64 -22 80 -36 30 -25 70 -102 70 -132 -1 -9 -7
1 -14 22 -17 47 -38 71 -81 91 -43 21 -81 20 -132 -3 -50 -23 -97 -97 -114
-181 -26 -128 -48 -186 -89 -233 -93 -105 -259 -116 -355 -23 -44 42 -66 94
-64 151 1 28 2 28 10 -8 21 -90 71 -137 144 -137 71 0 102 38 144 174 27 86
84 202 119 239 44 47 130 83 204 86 15 1 50 -4 78 -10z m-550 -96 c-1 -5 -15
-17 -32 -28 -41 -26 -97 -100 -105 -137 -3 -16 -8 -27 -10 -24 -2 2 1 31 8 64
10 46 10 67 1 86 -11 24 -10 26 26 31 20 4 42 8 47 10 20 7 65 5 65 -2z m670
-282 c0 -32 -5 -35 -79 -46 -31 -5 -42 -4 -37 4 4 6 13 11 19 11 7 0 28 14 47
30 44 37 50 37 50 1z m-810 -2038 c137 -37 258 -136 316 -256 25 -53 34 -84
33 -122 0 -43 -2 -47 -12 -31 -7 11 -30 39 -51 63 -103 114 -453 275 -603 276
-35 0 -63 4 -63 8 0 26 100 70 185 82 45 6 133 -3 195 -20z m-460 -257 c25
-66 138 -156 296 -234 146 -74 251 -105 351 -105 95 0 96 -7 8 -52 -108 -54
-289 -44 -426 26 -142 71 -259 235 -259 361 0 34 17 37 30 4z m-6546 -370 c26
-35 46 -68 46 -73 0 -5 -12 -15 -27 -22 -48 -22 -235 -145 -269 -177 -18 -16
-41 -34 -51 -40 -43 -21 -313 -238 -319 -256 -8 -27 -18 -21 -69 47 -48 64
-55 85 -28 85 21 0 377 236 441 293 26 23 83 69 125 102 43 33 80 70 83 83 4
12 10 22 15 22 4 0 28 -29 53 -64z m6366 -15 c66 -49 367 -254 507 -346 69
-45 123 -87 123 -96 0 -8 -14 -37 -31 -63 l-30 -49 -27 26 c-31 28 -628 429
-656 440 -17 7 -17 9 -2 30 8 12 26 39 38 60 12 20 24 36 28 35 3 -2 26 -18
50 -37z m-6221 -205 c52 -101 37 -186 -47 -250 -62 -49 -104 -59 -173 -42 -29
8 -57 12 -61 10 -5 -3 -8 -39 -8 -80 0 -45 -6 -86 -14 -102 -35 -66 -136 -132
-204 -132 -58 0 -137 44 -183 102 -21 27 -39 54 -39 58 0 5 19 -2 43 -15 81
-47 174 -26 266 60 59 55 76 98 67 166 -4 27 -4 49 -1 49 3 0 22 -9 42 -20 45
-24 91 -25 141 -5 80 34 122 101 122 195 0 74 13 76 49 6z m6158 -188 c106
-39 232 -156 288 -268 24 -46 28 -67 28 -130 0 -74 -23 -152 -58 -203 -13 -19
-14 -14 -8 46 5 61 3 72 -26 131 -58 117 -211 260 -347 323 -50 23 -72 27
-146 27 -49 -1 -88 2 -88 6 0 10 70 57 105 70 80 31 165 30 252 -2z m-5737
-267 l213 -208 -22 -31 c-12 -17 -36 -41 -52 -53 l-31 -22 7 55 c6 45 3 65
-14 104 -28 63 -165 204 -199 204 -30 0 -266 -224 -270 -256 -2 -13 -12 -25
-25 -28 -21 -5 -215 -211 -246 -260 -9 -14 -11 -32 -7 -47 8 -29 142 -148 193
-171 51 -23 110 -22 158 2 21 11 41 18 43 15 7 -7 -110 -125 -124 -125 -7 0
-89 73 -181 161 -248 238 -250 240 -234 247 24 8 334 311 397 387 32 39 82 97
111 129 32 36 53 69 53 83 0 13 4 23 8 23 5 0 105 -94 222 -209z m5381 -46
c67 -60 201 -181 297 -267 96 -87 181 -158 189 -158 25 0 13 -25 -43 -85 -40
-44 -57 -56 -61 -45 -8 20 -68 79 -333 324 -124 115 -238 217 -254 226 l-28
18 47 51 c27 29 52 50 55 49 4 -2 63 -52 131 -113z m-324 -93 c-22 -25 -21
-59 3 -107 l20 -39 -33 32 c-17 17 -45 36 -60 41 -33 13 -29 22 25 62 46 33
70 39 45 11z m-5257 -192 c0 -3 -18 -24 -40 -45 l-40 -39 0 34 c0 19 -3 45 -6
56 -5 21 -4 21 40 11 25 -6 46 -13 46 -17z m750 -106 c0 -15 -24 -99 -54 -188
-30 -89 -72 -240 -95 -336 -23 -96 -48 -200 -56 -230 -8 -30 -15 -67 -15 -82
0 -15 -5 -28 -12 -28 -14 0 -132 76 -149 96 -10 12 -8 18 9 30 12 8 22 21 22
27 0 7 14 55 30 107 17 51 28 100 25 108 -3 8 1 22 9 31 8 9 29 57 46 106 25
68 33 109 34 166 l2 75 78 72 c87 79 126 93 126 46z m4120 7 c0 -7 120 -172
327 -449 95 -126 161 -165 248 -145 25 6 45 8 45 5 0 -10 -36 -34 -95 -63 -69
-34 -155 -39 -210 -13 -43 20 -55 35 -339 437 -53 75 -101 137 -107 137 -23 0
-5 22 49 59 56 39 82 49 82 32z m-188 -195 l26 -74 -45 34 c-53 40 -80 49
-131 39 -25 -4 -34 -3 -27 4 13 13 127 70 141 71 6 0 22 -33 36 -74z m-3489
-58 c66 -30 68 -32 49 -47 -34 -27 -126 -227 -196 -424 -54 -155 -66 -198 -66
-250 0 -55 4 -67 31 -100 17 -21 45 -45 62 -54 53 -28 5 -28 -55 0 -124 57
-193 139 -191 226 1 44 62 199 141 358 42 84 105 281 99 310 -4 23 -2 25 26
19 17 -4 62 -21 100 -38z m3247 -1 c0 -12 15 -60 34 -107 42 -105 280 -586
302 -612 10 -10 15 -20 13 -22 -8 -8 -125 -64 -147 -70 -20 -7 -22 -5 -17 16
4 16 -23 88 -90 238 -53 118 -115 260 -137 315 -23 55 -54 124 -70 152 l-28
53 58 29 c69 36 82 38 82 8z m-280 -111 c0 -2 -7 -20 -15 -39 -8 -20 -15 -53
-16 -74 l-1 -38 -24 50 c-31 65 -30 73 9 90 33 15 47 18 47 11z m-2507 -75
c30 -16 78 -32 105 -36 28 -4 70 -12 93 -19 l43 -13 -39 -7 c-22 -4 -59 -21
-82 -37 l-43 -30 0 42 c0 47 -19 68 -62 69 -31 0 -59 -23 -83 -69 -20 -40 -26
-39 -14 1 14 49 11 89 -8 110 -15 17 -15 18 9 18 14 0 51 -13 81 -29z m2353
-102 c24 -94 21 -116 -10 -73 -73 101 -122 134 -201 134 -32 0 -44 4 -39 11 7
11 95 7 155 -7 18 -4 31 -1 40 10 24 26 33 13 55 -75z m-3913 7 c-3 -13 0 -33
6 -45 7 -11 9 -21 6 -21 -11 0 -49 22 -85 49 l-35 26 40 6 c72 11 73 11 68
-15z m1972 3 c82 -14 94 -22 72 -47 -22 -24 -84 -255 -102 -381 -7 -53 -23
-150 -36 -216 -12 -66 -23 -140 -23 -164 l-1 -43 -60 5 c-34 3 -73 11 -88 16
-26 10 -27 12 -13 33 8 13 26 82 41 153 15 72 40 180 55 240 28 106 60 313 60
382 0 38 3 38 95 22z m286 -60 c21 -11 21 -31 -3 -107 -10 -33 -28 -35 -28 -2
0 37 -25 73 -70 102 l-45 30 63 -6 c35 -3 72 -11 83 -17z m219 -31 c0 -60 118
-391 148 -418 15 -13 17 -38 15 -215 l-2 -200 -58 -3 c-72 -4 -108 4 -95 21
13 17 22 95 23 209 1 94 -1 102 -71 315 -40 119 -81 234 -91 255 -10 20 -19
42 -19 48 0 6 30 10 75 10 71 0 75 -1 75 -22z m395 11 c4 -6 -2 -20 -13 -32
-11 -12 -30 -38 -42 -57 l-22 -35 7 38 c4 27 2 46 -9 62 -12 18 -12 25 -3 28
23 10 76 7 82 -4z m707 -142 c41 -31 77 -42 203 -62 131 -21 199 -54 243 -119
93 -139 67 -287 -61 -351 -45 -22 -63 -25 -162 -25 -72 0 -115 -4 -123 -12 -6
-6 -14 -9 -18 -6 -5 6 -53 184 -54 201 0 16 18 5 28 -18 17 -36 91 -114 126
-132 17 -9 53 -15 81 -15 123 1 185 44 193 135 8 94 -38 125 -230 156 -130 22
-210 63 -253 131 -32 50 -59 153 -50 188 l7 27 19 -37 c10 -20 34 -48 51 -61z
m-2316 -311 c-14 -25 -39 -54 -55 -65 -40 -29 -120 -46 -156 -34 -25 8 -23 9
24 10 61 1 108 28 167 96 22 25 41 43 43 41 2 -1 -8 -23 -23 -48z"/>
<path d="M3958 8981 c-37 -59 -109 -164 -159 -232 -223 -300 -341 -496 -453
-754 -207 -476 -285 -697 -422 -1193 -35 -127 -40 -157 -26 -166 18 -11 114
114 222 289 41 66 123 194 183 285 130 199 237 415 442 895 146 344 217 537
266 728 31 120 43 247 24 253 -5 2 -40 -45 -77 -105z"/>
</g>
</svg>
